# xmcd CD database file
#
# Track frame offsets:
#	150
#	26432
#	49090
#	69748
#	109994
#	171047
#	200844
#	229582
#
# Disc length: 3379 seconds
#
# Revision: 0
# Processed by: cddbd v1.5.2PL0 Copyright (c) Steve Scherf et al.
# Submitted via: CDex 1.51
#
DISCID=6c0d3108
DTITLE=Sammasati - Radiant Awakening - Ranga
DYEAR=2002
DGENRE=New Age
TTITLE0=Mahadev
TTITLE1=Innocence
TTITLE2=Phoenix
TTITLE3=Myriads In
TTITLE4=Tiffany's Party
TTITLE5=Shakti's Path
TTITLE6=Gobi Trail
TTITLE7=Final Inn-o-cence
EXTD=YEAR: 2002
EXTT0=
EXTT1=
EXTT2=
EXTT3=
EXTT4=
EXTT5=
EXTT6=
EXTT7=
PLAYORDER=
